{"title":"Siberia 2018 1080p BluRay x264 DTS [MW]","magnet":"magnet:?xt=urn:btih:5274dc04ff7a70a5d577c935b7f568f6c855d47f&dn=Siberia+2018+1080p+BluRay+x264+DTS+%5BMW%5D&tr=udp%3A%2F%2Ftracker.leechers-paradise.org%3A6969&tr=udp%3A%2F%2Fzer0day.ch%3A1337&tr=udp%3A%2F%2Fopen.demonii.com%3A1337&tr=udp%3A%2F%2Ftracker.coppersurfer.tk%3A6969&tr=udp%3A%2F%2Fexodus.desync.com%3A6969","uploader":"MFreaky","categoryP":"video","categoryS":"hd___movies","size":"2905386587","seeders":"2","leechers":"6","description":" <a href=\"https://pichub.site/image/DQVzu\" rel=\"nofollow\" target=\"_NEW\">https://pichub.site/image/DQVzu</a> <a href=\"\nhttps://pichub.site/image/DQc5R\" rel=\"nofollow\" target=\"_NEW\">\nhttps://pichub.site/image/DQc5R</a> <a href=\"\nhttps://pichub.site/image/DQywB\" rel=\"nofollow\" target=\"_NEW\">\nhttps://pichub.site/image/DQywB</a> <a href=\"\nhttps://pichub.site/image/DQkjs\" rel=\"nofollow\" target=\"_NEW\">\nhttps://pichub.site/image/DQkjs</a> <a href=\"\nhttps://pichub.site/image/DQC0Y\" rel=\"nofollow\" target=\"_NEW\">\nhttps://pichub.site/image/DQC0Y</a>\r\n\r\nIMDB <a href=\"\nhttps://www.imdb.com/title/tt6494418/\" rel=\"nofollow\" target=\"_NEW\">\nhttps://www.imdb.com/title/tt6494418/</a>\r\n\r\nVideo\r\nFormat                                   : AVC\r\nFormat/Info                              : Advanced Video Codec\r\nFormat profile                           : High@L4.1\r\nFormat settings                          : CABAC / 4 Ref Frames\r\nFormat settings, CABAC                   : Yes\r\nFormat settings, RefFrames               : 4 frames\r\nCodec ID                                 : V_MPEG4/ISO/AVC\r\nDuration                                 : 1 h 44 min\r\nBit rate                                 : 3 000 kb/s\r\nWidth                                    : 1 920 pixels\r\nHeight                                   : 804 pixels\r\nDisplay aspect ratio                     : 2.40:1\r\nFrame rate mode                          : Constant\r\nFrame rate                               : 23.976 (24000/1001) FPS\r\nColor space                              : YUV\r\nChroma subsampling                       : 4:2:0\r\nBit depth                                : 8 bits\r\nScan type                                : Progressive\r\nBits/(Pixel*Frame)                       : 0.081\r\nStream size                              : 2.15 GiB (79%)\r\nWriting library                          : x264 core 155 r2901 7d0ff22\r\n\r\nAudio\r\nFormat                                   : DTS\r\nFormat/Info                              : Digital Theater Systems\r\nCodec ID                                 : A_DTS\r\nDuration                                 : 1 h 44 min\r\nBit rate mode                            : Constant\r\nBit rate                                 : 756 kb/s\r\nChannel(s)                               : 6 channels\r\nChannel positions                        : Front: L C R, Side: L R, LFE\r\nSampling rate                            : 48.0 kHz\r\nFrame rate                               : 93.750 FPS (512 SPF)\r\nBit depth                                : 16 bits\r\nCompression mode                         : Lossy\r\nStream size                              : 566 MiB (20%)\r\nLanguage                                 : English","last_updated":"2018-09-11T12:04:36.048Z","parsed":{"xt":"urn:btih:5274dc04ff7a70a5d577c935b7f568f6c855d47f","dn":"Siberia 2018 1080p BluRay x264 DTS [MW]","tr":["udp://exodus.desync.com:6969","udp://open.demonii.com:1337","udp://tracker.coppersurfer.tk:6969","udp://tracker.leechers-paradise.org:6969","udp://zer0day.ch:1337"],"infoHash":"5274dc04ff7a70a5d577c935b7f568f6c855d47f","infoHashBuffer":{"type":"Buffer","data":[82,116,220,4,255,122,112,165,213,119,201,53,183,245,104,246,200,85,212,127]},"name":"Siberia 2018 1080p BluRay x264 DTS [MW]","announce":["udp://exodus.desync.com:6969","udp://open.demonii.com:1337","udp://tracker.coppersurfer.tk:6969","udp://tracker.leechers-paradise.org:6969","udp://zer0day.ch:1337"],"urlList":[]}}